<?xml version="1.0" standalone="no"?>
<!DOCTYPE svg PUBLIC "-//W3C//DTD SVG 20010904//EN"
 "http://www.w3.org/TR/2001/REC-SVG-20010904/DTD/svg10.dtd">
<svg version="1.0" xmlns="http://www.w3.org/2000/svg"
 width="1024.000000pt" height="1024.000000pt" viewBox="0 0 1024.000000 1024.000000"
 preserveAspectRatio="xMidYMid meet">
<metadata>
Created by potrace 1.16, written by Peter Selinger 2001-2019
</metadata>
<g transform="translate(0.000000,1024.000000) scale(0.100000,-0.100000)"
fill="#000000" stroke="none">
<path d="M0 5120 l0 -5120 5120 0 5120 0 0 5120 0 5120 -5120 0 -5120 0 0
-5120z m6880 3886 c0 -2 -57 -38 -127 -80 -418 -251 -797 -554 -1020 -816
-127 -148 -221 -275 -211 -286 3 -3 31 25 61 63 93 116 527 523 527 494 0 -5
-10 -16 -22 -24 -39 -26 -272 -258 -327 -325 -61 -76 -229 -311 -262 -367 -54
-95 -81 -146 -77 -150 2 -2 52 60 110 138 59 78 115 151 125 162 10 11 66 74
125 140 107 121 191 205 239 241 92 68 185 140 200 155 10 10 28 23 40 30 19
10 18 5 -11 -30 -18 -24 -41 -48 -52 -54 -10 -7 -18 -18 -18 -25 0 -14 42 10
75 43 60 61 138 128 132 114 -3 -9 -1 -21 5 -27 7 -7 -20 -35 -84 -87 -95 -78
-308 -283 -308 -296 0 -4 -22 -31 -50 -60 -83 -89 -47 -67 57 34 142 138 350
308 493 403 70 46 77 50 56 26 -28 -32 -15 -36 24 -7 18 13 37 22 41 19 5 -3
9 2 9 10 0 9 6 16 14 16 8 0 22 7 30 16 14 13 16 13 16 0 0 -8 -9 -17 -20 -21
-11 -3 -29 -19 -41 -36 -11 -16 -24 -27 -27 -25 -7 4 -30 -14 -245 -181 -96
-76 -156 -138 -457 -468 -36 -39 -95 -120 -132 -181 -37 -60 -71 -114 -77
-120 -20 -23 -71 -127 -71 -145 0 -10 -8 -25 -17 -35 -10 -10 -16 -29 -15 -44
5 -44 -136 -210 -178 -210 -17 0 -104 85 -192 187 -43 51 -84 90 -91 87 -7 -3
-38 -37 -69 -77 -32 -40 -119 -132 -193 -206 -106 -105 -138 -132 -148 -122
-16 16 -21 327 -8 496 7 81 21 166 37 225 15 52 28 111 30 130 l4 35 -15 -32
c-8 -18 -21 -33 -28 -33 -16 0 -49 -90 -77 -210 -22 -96 -27 -289 -10 -445 20
-181 23 -240 12 -230 -19 18 -35 206 -36 410 l-1 200 -35 17 c-62 31 -71 28
-137 -43 -96 -104 -101 -156 -22 -250 23 -27 40 -51 38 -52 -2 -2 -49 -20
-104 -42 -55 -21 -109 -48 -121 -61 -43 -42 -55 -134 -30 -219 18 -59 7 -93
-49 -145 l-37 -35 -16 25 c-10 13 -27 36 -39 50 -19 21 -18 14 11 -55 19 -44
45 -106 60 -139 39 -88 31 -81 -22 19 -63 118 -83 148 -93 138 -5 -5 -4 -24 1
-43 6 -19 15 -66 21 -104 16 -102 34 -144 84 -197 25 -27 45 -57 45 -69 0 -11
5 -20 11 -20 7 0 9 -10 5 -25 -7 -27 26 -105 44 -105 16 0 11 -27 -6 -34 -9
-3 -34 -6 -57 -7 -39 -1 -38 -2 23 -15 154 -33 295 -117 432 -258 36 -37 25
-54 -15 -23 -49 37 -127 74 -198 93 -193 51 -399 -10 -602 -179 -66 -55 -96
-102 -208 -325 l-97 -193 80 -157 c135 -262 214 -364 348 -442 178 -106 369
-117 549 -34 98 45 117 37 22 -9 -113 -55 -206 -73 -312 -59 -204 28 -336 108
-468 283 -33 43 -79 118 -103 166 -23 49 -64 124 -90 168 -27 44 -48 87 -48
95 0 9 11 32 25 53 14 20 57 101 95 180 37 78 79 158 92 177 33 47 24 64 -33
68 -45 3 -47 2 -96 -55 -28 -32 -84 -114 -124 -183 -50 -85 -93 -145 -136
-187 -35 -35 -63 -67 -63 -71 0 -5 27 -38 60 -74 64 -70 163 -208 155 -216 -3
-3 -6 -3 -8 -1 -38 61 -87 122 -157 199 l-87 95 59 65 c78 86 137 168 194 271
26 46 68 113 92 149 52 75 189 241 209 253 7 4 13 13 13 18 0 6 -9 4 -21 -4
-25 -18 -55 -11 -94 21 -62 51 -84 55 -345 62 -144 4 -255 11 -270 18 -21 9
-14 11 50 12 41 0 160 7 264 14 247 19 256 27 154 144 -95 109 -292 363 -397
512 -59 82 -169 236 -245 342 -76 106 -148 212 -158 236 -22 49 -18 101 10
145 32 48 564 467 594 467 4 0 8 -12 8 -27 0 -16 11 -74 25 -131 14 -57 25
-117 25 -135 0 -41 18 -138 40 -212 10 -33 21 -80 25 -105 4 -25 13 -61 20
-80 7 -19 20 -64 30 -100 10 -36 28 -85 40 -110 16 -32 25 -72 30 -135 4 -49
20 -145 36 -212 16 -66 33 -144 39 -172 14 -76 113 -211 157 -216 30 -4 68
-22 101 -50 l31 -26 -48 103 c-50 106 -155 413 -260 763 -80 265 -221 784
-221 813 0 37 26 89 55 108 15 10 59 26 99 36 103 26 634 128 1081 208 193 34
175 31 315 58 58 12 123 22 144 24 38 3 40 5 69 73 36 85 162 322 189 356 11
13 8 4 -7 -21 -48 -82 -163 -324 -179 -379 l-16 -54 23 21 c59 55 127 -9 71
-67 -11 -12 -12 -11 -8 10 l5 24 -14 -25 c-8 -14 -27 -61 -42 -104 -15 -44
-34 -93 -42 -110 l-14 -31 6 28 c4 19 2 28 -5 25 -18 -6 -53 -79 -65 -133 -3
-16 -8 -38 -12 -49 -4 -13 -1 -17 8 -12 8 4 7 1 -2 -6 -9 -7 -24 -39 -33 -70
-19 -66 -19 -68 -6 -68 6 0 10 4 10 10 0 11 42 101 146 318 88 183 163 313
255 442 37 52 82 127 100 165 19 39 38 73 44 77 5 4 10 13 10 20 0 18 55 46
100 50 40 3 40 3 43 -36 2 -21 -1 -43 -7 -49 -6 -6 -11 -18 -11 -26 0 -21
-112 -124 -120 -111 -15 25 -203 -228 -275 -370 -15 -30 -33 -59 -40 -65 -7
-5 -29 -41 -50 -80 -21 -38 -42 -72 -47 -74 -18 -6 -117 -276 -106 -287 2 -2
17 30 33 71 15 41 30 73 33 70 6 -5 -18 -96 -29 -110 -12 -16 -71 -233 -67
-246 2 -5 20 32 41 83 76 185 218 460 253 489 34 28 23 -10 -45 -156 -63 -137
-118 -292 -107 -302 2 -2 11 15 20 39 20 50 113 218 168 301 21 32 38 61 38
64 0 15 138 209 215 303 109 132 215 241 330 338 l90 76 -130 -139 c-122 -130
-188 -208 -292 -345 -52 -69 -203 -309 -203 -323 0 -6 12 8 27 31 33 50 47 54
38 10 l-6 -33 23 26 c13 15 45 55 73 90 149 191 347 388 558 554 48 39 120 96
160 127 40 32 76 57 81 58 5 0 25 12 45 28 20 15 45 32 56 38 64 35 126 72
175 103 59 38 210 120 223 121 4 0 7 -2 7 -4z m-3764 -431 c84 -64 88 -68 80
-98 -6 -24 -157 -187 -173 -187 -26 0 -139 96 -159 136 -12 22 -11 29 4 50 9
13 22 24 27 24 6 0 3 5 -5 10 -11 7 -12 10 -2 10 8 0 27 14 42 30 15 17 32 30
37 30 5 0 20 11 33 25 13 14 28 25 33 25 5 0 42 -25 83 -55z m1085 -165 c45
-13 84 -50 114 -110 23 -47 39 -100 30 -100 -3 0 -76 -18 -163 -39 -86 -22
-228 -54 -314 -70 -87 -17 -169 -36 -183 -41 -79 -30 -42 11 157 176 167 139
217 172 278 185 19 4 37 7 40 8 3 0 21 -4 41 -9z m2522 -341 c28 -14 195 -174
495 -476 248 -250 452 -459 452 -464 0 -5 -6 -9 -14 -9 -8 0 -16 -3 -18 -7 -3
-7 -46 -37 -110 -76 -15 -9 -33 -14 -41 -11 -8 3 -31 -1 -50 -10 -20 -8 -58
-18 -84 -22 -26 -4 -73 -20 -104 -35 -31 -16 -60 -29 -64 -29 -4 0 -27 -16
-51 -35 -24 -20 -69 -49 -101 -66 -32 -17 -68 -40 -81 -52 -20 -18 -33 -21
-90 -19 -37 1 -93 -4 -124 -11 -32 -8 -58 -13 -58 -10 0 2 8 16 18 30 28 44
24 166 -8 222 -74 131 -213 147 -324 36 -53 -54 -82 -113 -96 -199 -6 -36 -13
-71 -16 -79 -8 -21 -49 -37 -96 -37 -23 0 -49 -6 -57 -14 -9 -8 -29 -16 -46
-18 -26 -3 -30 1 -36 27 -4 17 -7 26 -8 21 0 -6 -16 4 -33 20 -70 65 -120 94
-163 94 -22 0 -50 7 -63 15 -19 14 -24 14 -46 0 -15 -10 -41 -16 -68 -14 -37
2 -51 10 -100 58 -32 30 -58 61 -58 69 0 16 345 368 685 698 138 134 280 277
317 317 98 109 155 129 241 86z m1147 -446 c0 -2 -6 -3 -13 -3 -7 0 -51 36
-99 80 -79 73 -118 96 -118 70 0 -5 -6 -10 -13 -10 -7 0 -44 -31 -82 -70 -38
-38 -89 -84 -114 -102 l-46 -33 19 30 c11 17 62 75 113 131 52 56 101 110 109
122 14 21 18 18 129 -96 63 -64 115 -118 115 -119z m-5651 -130 c36 -19 90
-54 121 -78 53 -41 330 -325 330 -339 0 -28 -133 72 -325 244 -77 69 -158 141
-180 159 -85 72 -63 77 54 14z m6269 -60 c-51 -50 -132 -123 -180 -162 -48
-40 -91 -77 -95 -84 -12 -18 -77 -74 -68 -58 9 16 -61 -39 -221 -175 -65 -55
-162 -131 -214 -169 -52 -37 -122 -93 -155 -124 -33 -31 -109 -90 -169 -131
-60 -41 -149 -109 -198 -150 -123 -103 -268 -209 -295 -216 -13 -4 -23 -10
-23 -14 0 -4 -7 -10 -15 -14 -28 -11 2 30 52 71 27 21 50 40 53 43 3 3 17 13
32 23 15 9 55 43 89 74 34 32 109 94 168 138 126 94 229 177 326 260 39 33 92
76 118 95 77 57 168 129 232 185 33 28 80 66 105 82 25 17 117 88 204 157 86
69 166 131 177 136 10 6 51 38 90 71 40 32 74 58 76 56 2 -2 -38 -45 -89 -94z
m-364 -5 c10 -40 7 -47 -36 -74 -24 -15 -68 -50 -99 -78 -31 -28 -76 -66 -100
-84 -24 -18 -62 -47 -85 -65 -23 -17 -49 -37 -59 -43 -18 -10 -17 -12 8 -46
32 -42 36 -63 8 -49 -14 8 -22 7 -32 -5 -9 -11 -22 -14 -45 -9 -40 7 -81 -11
-149 -65 -48 -38 -75 -50 -75 -32 0 15 221 242 236 242 8 0 28 12 46 28 107
92 210 186 253 231 70 73 117 91 129 49z m-2683 -565 c225 -184 331 -298 368
-398 12 -31 26 -97 32 -148 14 -115 1 -177 -70 -322 l-50 -100 -1 55 -2 55
-12 -60 c-7 -33 -27 -88 -44 -122 -18 -34 -32 -64 -32 -66 0 -2 24 20 54 49
104 101 251 179 398 210 64 14 78 21 89 43 7 14 12 29 11 33 -3 14 81 68 105
68 23 0 123 70 222 156 20 17 88 68 151 114 63 45 132 96 152 112 21 16 46 28
55 26 16 -3 -55 -67 -312 -285 -58 -49 -188 -173 -181 -173 4 0 39 23 78 50
39 28 76 50 81 50 6 0 20 8 31 18 16 14 15 8 -8 -31 l-28 -49 39 23 c25 14 46
20 58 15 14 -5 16 -9 7 -18 -7 -7 -12 -20 -12 -30 0 -38 76 -13 157 51 28 23
53 41 55 41 8 0 192 112 211 128 9 8 20 13 23 10 8 -8 -25 -38 -86 -77 -69
-45 -223 -170 -239 -194 -10 -16 -8 -16 29 3 46 23 54 11 20 -33 -11 -14 -20
-28 -20 -31 0 -3 25 -6 57 -6 l56 0 -19 -21 c-19 -21 -19 -22 1 -16 20 6 79
19 104 23 8 2 21 -1 29 -5 17 -9 -12 -31 -91 -71 -26 -13 -50 -27 -53 -31 -7
-12 43 5 131 44 109 48 171 65 187 49 24 -24 -24 -55 -237 -151 -79 -35 -148
-62 -195 -77 -20 -6 -90 53 -90 76 0 22 31 46 118 90 35 18 61 34 58 37 -9 10
-94 -27 -147 -64 -64 -44 -103 -50 -151 -25 -21 11 -38 17 -38 14 0 -2 35 -41
78 -86 109 -114 166 -192 235 -320 74 -138 132 -221 216 -309 l65 -68 -62 -55
c-34 -31 -89 -93 -123 -140 -65 -89 -86 -109 -48 -46 43 71 63 97 128 165 65
68 66 74 7 67 -11 -1 -44 6 -73 16 l-53 18 -30 -29 c-30 -29 -55 -64 -104
-145 -151 -249 -224 -339 -345 -424 -110 -77 -149 -94 -258 -113 -129 -21
-254 -9 -346 36 -58 27 -60 29 -30 30 18 1 67 -10 110 -23 107 -33 141 -36
239 -25 106 12 168 36 264 104 132 93 226 206 331 399 33 61 75 133 95 160
l35 49 -29 17 c-21 13 -52 63 -115 188 -48 94 -105 193 -127 221 -67 85 -206
185 -239 173 -10 -3 -11 0 -5 9 6 11 3 10 -11 -1 -11 -9 -16 -10 -11 -2 5 8 0
12 -18 12 -14 0 -28 5 -31 10 -3 6 -13 10 -22 10 -9 0 -25 8 -36 18 -16 15
-41 17 -178 17 l-158 0 -101 -52 c-55 -29 -107 -53 -114 -53 -21 0 -25 34 -9
71 94 216 107 456 32 608 -31 63 -136 179 -223 246 -21 17 -45 36 -52 43 -10
9 -14 10 -14 2 0 -15 -95 61 -189 151 l-48 46 -15 -28 c-9 -15 -42 -44 -74
-64 -203 -130 -337 -282 -426 -485 -32 -73 -33 -78 -32 -210 l0 -135 47 -114
c26 -63 45 -116 43 -118 -2 -3 -28 41 -57 97 -29 55 -67 117 -85 138 -45 53
-66 121 -71 237 -11 226 52 346 311 595 78 74 190 185 250 247 l108 112 137
-134 c75 -74 157 -151 182 -172z m-2968 105 c25 -18 111 -94 190 -170 80 -75
187 -171 239 -213 141 -117 286 -249 287 -261 1 -6 10 -19 21 -29 47 -42 14
-31 -62 22 -229 157 -708 551 -752 618 -20 30 -13 65 14 65 10 0 38 -15 63
-32z m4842 -132 c-28 -36 -183 -170 -315 -270 -215 -164 -233 -176 -250 -171
-12 4 -27 -5 -46 -27 -33 -38 -87 -78 -104 -78 -15 0 -4 10 79 75 35 28 111
91 169 140 211 180 236 201 321 273 86 73 163 119 169 102 2 -5 -9 -25 -23
-44z m-4991 -53 c119 -91 144 -117 79 -84 -39 19 -83 25 -189 22 -47 -1 -70
-7 -98 -26 -44 -30 -47 -30 -40 -7 3 9 -8 1 -25 -18 -17 -19 -31 -30 -31 -25
0 12 74 121 101 150 11 11 29 32 40 48 11 15 27 27 35 27 7 0 65 -39 128 -87z
m4104 -9 c2 -15 -12 -33 -50 -65 -66 -54 -193 -166 -273 -239 -33 -30 -76 -68
-96 -85 -19 -16 -45 -39 -57 -49 -12 -11 -25 -16 -28 -13 -8 8 276 288 333
329 23 17 63 57 89 90 49 60 76 71 82 32z m1844 -211 c44 -40 6 -130 -50 -117
-31 7 -82 57 -82 80 0 66 76 88 132 37z m-5602 -475 c32 -6 94 -38 86 -45 -3
-3 -22 5 -42 17 l-37 23 18 -26 c36 -56 13 -135 -49 -165 -24 -12 -34 -12 -72
3 -60 23 -84 56 -84 116 0 46 2 50 38 69 36 19 67 21 142 8z m5476 -95 c-11
-11 -86 -39 -274 -104 -178 -60 -254 -81 -364 -98 -206 -33 -193 -17 32 39 90
22 189 49 219 61 31 11 89 29 131 39 74 19 146 39 205 58 37 12 61 15 51 5z
m-5270 -82 c310 -127 472 -201 438 -201 -48 1 -574 221 -574 241 0 14 11 11
136 -40z m5154 -31 c-30 -11 -116 -38 -190 -61 -74 -23 -138 -46 -141 -51 -3
-5 -68 -22 -145 -38 -214 -45 -260 -61 -215 -75 14 -4 31 0 47 10 13 9 28 14
33 11 4 -3 47 -2 94 2 52 5 83 4 80 -2 -4 -5 8 -6 28 -3 137 25 154 18 46 -19
l-62 -21 53 -11 c29 -7 79 -23 111 -36 39 -17 100 -30 187 -40 71 -8 155 -19
187 -25 32 -5 178 -12 325 -15 147 -4 310 -10 362 -13 l95 -7 -65 -7 c-36 -4
-144 -10 -240 -14 -527 -20 -621 -25 -642 -36 -12 -6 -47 -15 -77 -20 -31 -4
-87 -14 -126 -23 -185 -40 -545 -72 -545 -48 0 6 6 13 13 15 6 3 -9 6 -34 6
-51 1 -189 26 -230 42 -15 6 -39 24 -55 40 -33 34 -30 38 49 66 37 14 47 23
47 40 0 12 5 25 12 29 7 4 8 3 4 -4 -8 -14 10 -15 39 -2 19 8 18 9 -4 9 -39 1
-21 9 70 31 146 35 169 42 163 51 -2 4 -15 4 -27 0 -12 -5 -62 -12 -112 -16
-117 -9 -104 6 35 40 58 14 137 34 175 45 82 22 178 40 230 42 20 1 39 7 42
15 3 7 17 13 32 13 14 0 47 7 74 15 26 8 49 14 52 14 17 1 71 17 145 42 47 16
96 28 110 28 17 0 7 -6 -30 -19z m-5510 -46 c30 -8 125 -37 210 -64 85 -27
196 -61 245 -75 75 -21 225 -67 370 -114 l30 -9 -30 -1 c-37 -1 -308 74 -520
144 -249 82 -413 140 -421 148 -4 3 9 2 27 -4 19 -6 59 -17 89 -25z m2778 -49
c107 -48 170 -149 160 -254 -10 -99 -53 -146 -176 -191 -50 -18 -65 -20 -77
-10 -21 17 -19 33 6 56 65 57 90 200 46 264 -48 72 -136 94 -200 50 -94 -65
-103 -181 -23 -310 23 -37 33 -63 30 -80 -4 -20 15 -51 87 -145 109 -143 136
-184 145 -221 l7 -28 24 30 c37 44 53 88 53 144 l0 50 -57 28 c-31 15 -59 33
-61 40 -6 19 53 39 158 52 52 6 137 18 189 26 52 8 98 11 103 6 15 -15 -68
-98 -121 -121 -55 -23 -72 -47 -98 -135 -8 -28 -29 -78 -46 -111 -17 -33 -39
-78 -50 -100 l-18 -40 29 28 c27 26 34 28 75 22 80 -12 166 42 208 130 21 44
25 106 9 136 -10 18 -7 19 59 19 77 0 81 -3 81 -74 0 -79 -61 -166 -195 -280
-29 -25 -29 -27 -11 -41 11 -8 36 -17 55 -21 60 -10 86 -20 86 -34 0 -18 -31
-26 -162 -40 -134 -15 -170 -9 -246 38 -57 35 -60 36 -85 20 -84 -52 -192
-108 -227 -117 -101 -27 -249 -2 -358 62 -78 46 -131 135 -143 239 -17 145 95
321 267 421 l37 21 -24 36 c-57 86 -51 226 13 319 77 111 162 152 303 148 68
-3 98 -9 148 -32z m-3086 -59 c40 -8 154 -40 252 -70 99 -31 187 -56 197 -56
9 0 59 -11 110 -25 52 -14 148 -36 214 -50 66 -13 157 -36 202 -49 45 -14 103
-28 128 -32 35 -5 45 -10 43 -23 -5 -27 -67 -25 -256 9 -222 39 -339 64 -472
102 -58 17 -166 41 -240 53 l-135 23 94 1 c52 1 92 3 89 6 -3 3 -38 15 -78 26
-40 11 -102 35 -138 54 -36 19 -73 35 -84 35 -10 0 -18 5 -18 11 0 5 4 8 9 5
5 -3 42 -12 83 -20z m498 -40 c189 -42 331 -77 470 -116 58 -16 125 -34 150
-41 51 -12 70 -25 70 -45 0 -24 -57 -15 -315 50 -282 72 -472 130 -496 152 -8
7 -23 14 -32 14 -9 0 -19 5 -22 10 -9 15 6 13 175 -24z m-614 -130 c71 -14
202 -34 292 -45 168 -22 654 -97 824 -127 98 -18 121 -34 47 -34 -73 0 -333
30 -429 50 -52 10 -180 33 -285 49 -247 39 -353 59 -445 81 -41 10 -104 25
-140 33 -114 26 -9 20 136 -7z m359 -130 c99 -9 245 -27 325 -41 80 -13 181
-27 225 -30 90 -8 245 -32 253 -40 3 -3 1 -9 -4 -15 -11 -10 -371 22 -484 44
-41 8 -163 24 -270 36 -205 22 -452 58 -460 67 -7 8 205 -3 415 -21z m-155
-92 c173 -8 392 -24 485 -34 94 -11 206 -20 250 -21 88 -1 156 -17 163 -38 4
-12 -18 -13 -134 -7 -77 4 -184 13 -239 21 -55 8 -163 19 -240 25 -77 6 -255
22 -395 35 -140 14 -318 29 -395 34 l-140 10 165 -5 c91 -3 307 -12 480 -20z
m6149 -16 c0 -7 -17 -56 -39 -108 -26 -64 -43 -93 -52 -90 -16 5 -80 4 -174
-5 -56 -6 -78 -4 -102 9 -17 9 -40 16 -52 16 -24 0 -40 34 -40 86 0 46 9 49
214 74 93 11 172 23 174 25 11 11 72 4 71 -7z m-795 -94 c3 -9 6 -24 6 -34 0
-16 -14 -18 -173 -19 -172 -2 -257 5 -257 20 0 12 98 29 212 38 174 14 205 13
212 -5z m-5655 -95 c97 -26 151 -50 151 -65 0 -21 -40 -63 -55 -57 -8 3 -15 0
-15 -7 0 -6 5 -8 10 -5 15 9 12 -9 -6 -31 -12 -15 -14 -15 -11 -2 9 26 -5 30
-18 5 -6 -12 -17 -21 -24 -19 -8 2 -10 -4 -6 -18 3 -11 2 -20 -3 -20 -15 0
-33 -48 -20 -56 7 -4 8 -3 4 4 -5 8 1 12 14 12 14 0 20 5 17 13 -2 6 2 18 10
26 13 12 14 10 9 -18 -3 -17 -9 -44 -12 -61 -6 -33 -24 -38 -48 -14 -15 14
-16 14 -16 -1 0 -11 -5 -15 -16 -11 -8 3 -12 2 -9 -4 18 -30 -22 -2 -84 59
-58 56 -71 74 -71 99 0 24 -4 30 -15 26 -36 -14 -6 38 63 109 31 31 61 57 66
57 5 0 44 -9 85 -21z m836 -51 c143 -18 168 -24 123 -26 -32 -2 -58 -7 -58
-12 0 -6 -58 -9 -142 -8 l-143 2 125 6 c147 6 129 17 -41 25 -96 4 -119 2
-129 -10 -10 -12 -9 -15 6 -16 24 -1 -92 -28 -124 -29 -25 0 -42 28 -23 39 7
5 32 3 57 -2 50 -12 60 -7 45 22 -10 19 -8 20 41 24 29 2 60 4 68 5 8 1 96 -8
195 -20z m4719 -164 c263 -42 464 -83 586 -121 63 -19 119 -38 123 -43 5 -4
-51 3 -125 16 -73 14 -225 38 -338 54 -113 17 -250 39 -305 50 -55 11 -149 28
-210 38 -106 18 -109 19 -75 30 46 15 144 8 344 -24z m-4790 -45 c44 19 502
27 523 9 20 -16 76 -98 71 -104 -13 -12 -322 -82 -347 -78 -17 3 -38 1 -48 -4
-10 -6 -39 -13 -65 -17 -40 -6 -47 -5 -51 12 -3 15 -6 13 -15 -9 -14 -35 -21
-35 -52 2 -14 16 -27 25 -31 19 -7 -13 -99 -22 -99 -10 0 5 18 18 40 28 24 11
40 25 40 36 0 18 -16 24 -22 7 -5 -15 -108 -40 -108 -26 0 6 15 16 33 22 17 7
57 21 89 33 31 11 80 23 110 26 87 9 143 17 148 22 11 11 -266 -4 -288 -16
-12 -6 -22 -9 -22 -7 0 3 12 12 28 20 15 8 21 15 14 16 -6 0 -29 -9 -49 -20
-21 -11 -43 -20 -50 -20 -21 0 -2 30 35 55 33 22 36 23 59 8 22 -14 29 -15 57
-4z m4623 10 c43 -5 105 -17 138 -26 33 -8 132 -31 220 -49 l160 -34 -115 5
c-63 4 -128 8 -145 11 -106 16 291 -121 580 -200 110 -30 247 -70 305 -90 58
-19 145 -47 194 -61 131 -39 100 -38 -44 1 -69 18 -159 43 -201 54 -83 23
-251 52 -258 45 -2 -3 2 -6 10 -8 78 -22 296 -96 427 -146 90 -33 168 -61 173
-61 15 0 171 -61 167 -66 -6 -5 -166 48 -373 124 -308 113 -549 182 -637 182
-37 0 -15 -21 70 -66 48 -26 98 -53 110 -61 47 -29 12 -23 -74 13 -99 41 -355
126 -361 120 -3 -2 14 -12 36 -22 56 -25 44 -29 -15 -5 -171 67 -204 79 -249
85 -46 5 -42 3 41 -27 49 -18 102 -41 116 -53 14 -11 58 -33 99 -49 41 -16 90
-40 109 -54 49 -37 112 -76 134 -84 10 -4 16 -10 13 -13 -3 -4 -52 19 -109 51
-61 33 -118 58 -138 59 -20 2 -58 10 -85 19 -28 8 -129 37 -225 62 -161 43
-324 92 -343 102 -4 2 0 11 8 20 14 13 27 14 93 4 246 -35 238 -34 231 -26 -3
2 -52 11 -110 20 -117 18 -198 43 -177 57 11 6 11 10 0 16 -24 16 6 60 42 64
l31 4 -38 19 c-32 16 -35 20 -20 26 10 4 52 8 93 9 l75 2 -59 14 c-33 8 -62
17 -65 19 -8 9 85 5 166 -6z m-3817 -206 c94 -146 174 -234 275 -302 98 -67
171 -92 281 -98 109 -7 152 6 339 99 18 9 18 9 5 -5 -26 -26 -153 -86 -220
-103 -105 -27 -239 -3 -372 68 -72 38 -189 146 -261 240 -51 67 -146 228 -134
228 3 0 42 -57 87 -127z m3149 -10 c-129 -191 -311 -348 -456 -393 -113 -35
-270 -21 -365 33 -56 31 -38 32 28 2 32 -15 83 -31 113 -36 108 -17 273 25
380 98 85 58 209 186 290 301 40 56 75 102 77 102 3 0 -28 -48 -67 -107z
m-3285 24 c35 -55 156 -206 229 -287 99 -110 91 -97 65 -112 -25 -13 -74 -32
-347 -127 -96 -34 -176 -59 -178 -57 -8 8 29 56 43 56 8 0 14 4 14 9 0 9 -63
-12 -85 -28 -5 -4 -39 -18 -75 -31 -36 -13 -124 -54 -196 -92 -73 -37 -139
-66 -147 -62 -21 8 -155 -55 -139 -65 10 -6 4 -12 -20 -21 -18 -8 -82 -38
-142 -67 -61 -29 -111 -53 -113 -53 -2 0 -3 10 -4 23 0 18 -3 17 -15 -12 -12
-26 -19 -32 -35 -28 -12 3 -22 0 -26 -9 -7 -18 -53 -17 -78 2 -20 15 -19 16
20 47 21 18 55 47 74 65 18 18 73 56 120 84 131 77 255 159 264 175 5 7 12 11
18 8 5 -4 9 0 9 9 0 17 -101 -19 -219 -78 -39 -20 -71 -32 -71 -26 0 5 35 32
78 60 117 74 153 121 59 76 -35 -17 -47 -20 -47 -10 0 8 4 14 9 14 14 0 61 45
61 59 0 6 5 11 11 11 5 0 7 -4 4 -10 -8 -14 -3 -13 44 8 22 10 49 30 61 44 11
14 40 34 65 44 48 20 54 28 30 38 -8 3 -14 16 -13 30 1 15 7 22 15 19 7 -3 13
0 13 7 0 6 3 9 8 7 4 -2 16 5 26 16 19 20 19 20 -5 13 -13 -3 -56 -13 -95 -21
-40 -7 -104 -27 -144 -44 -40 -17 -79 -31 -87 -31 -8 0 -49 -12 -91 -26 -78
-27 -238 -63 -280 -64 -29 0 -21 17 42 87 72 79 204 140 433 198 56 14 122 35
148 46 25 11 90 31 143 45 53 13 126 33 162 44 36 10 121 29 190 40 68 12 127
23 129 26 13 13 37 -6 65 -49z m-1730 -128 c30 -36 31 -40 11 -79 -16 -31 -43
-50 -69 -50 -28 0 -78 54 -78 83 0 78 85 107 136 46z m5737 -39 c317 -87 471
-160 597 -283 53 -51 102 -120 102 -141 0 -3 -24 20 -52 51 -59 62 -89 83
-215 149 -142 74 -314 141 -542 210 -63 19 -126 42 -140 50 -50 29 85 9 250
-36z m17 -126 c137 -51 375 -171 467 -234 74 -51 242 -225 255 -265 20 -60 -4
-67 -29 -9 -31 69 -93 148 -154 193 -87 65 -278 169 -416 226 -72 30 -147 65
-168 79 -21 14 -59 33 -85 42 -27 8 -48 17 -48 20 0 12 44 -1 178 -52z m-416
-85 c10 -5 25 -21 34 -35 16 -23 15 -26 -1 -44 -24 -27 -74 -26 -116 3 -27 18
-35 30 -37 61 l-3 39 52 -7 c29 -4 61 -12 71 -17z m200 -16 c53 -21 214 -112
288 -163 30 -21 123 -78 205 -127 153 -92 315 -200 315 -210 0 -3 -10 2 -22
11 -13 9 -34 21 -48 27 -46 19 -374 216 -545 327 -71 47 -159 100 -195 118
-69 36 -68 45 2 17z m46 -95 c43 -22 133 -78 202 -123 69 -45 175 -112 235
-149 269 -165 525 -338 508 -343 -5 -2 -55 25 -111 59 -56 35 -139 84 -184
111 -46 26 -114 67 -153 92 -38 25 -97 61 -130 81 -33 20 -137 90 -232 155
-94 65 -175 119 -181 119 -5 0 -17 9 -27 20 -26 29 -13 25 73 -22z m-3648 27
c0 -5 -66 -36 -260 -125 -63 -29 -120 -56 -126 -61 -6 -5 -109 -58 -228 -119
-120 -60 -261 -139 -314 -175 -54 -36 -103 -65 -109 -65 -23 0 -1 30 38 52 21
12 39 25 39 29 0 4 17 16 38 26 90 48 172 92 197 109 45 29 89 54 108 60 9 4
17 10 17 15 0 5 6 9 14 9 8 0 55 24 105 54 50 30 138 71 194 91 56 20 125 47
152 61 28 13 69 28 90 33 22 5 41 9 43 10 1 1 2 -1 2 -4z m-1698 -54 c13 -5
29 -20 37 -34 11 -20 11 -29 -3 -54 -24 -48 -66 -57 -110 -22 -33 26 -34 62
-1 94 26 27 41 30 77 16z m5465 -135 c349 -227 455 -294 573 -364 79 -47 121
-79 134 -101 23 -39 15 -50 -15 -22 -12 11 -65 46 -118 77 -53 32 -159 99
-236 149 -77 50 -185 120 -239 156 -55 35 -138 93 -185 127 -47 35 -102 74
-123 85 -21 12 -38 26 -38 30 0 19 55 -12 247 -137z m-2997 89 c0 -52 -60
-133 -210 -283 -81 -81 -153 -132 -167 -118 -12 11 46 95 110 159 40 40 112
114 161 165 49 51 93 92 98 92 4 0 8 -7 8 -15z m2806 -51 c52 -31 123 -77 159
-103 35 -25 87 -59 115 -76 28 -16 100 -64 160 -105 60 -41 150 -101 199 -133
94 -60 223 -158 217 -164 -5 -5 -265 158 -359 226 -43 31 -120 83 -172 116
-116 75 -393 259 -420 279 -13 10 -15 15 -6 16 7 0 56 -25 107 -56z m-2533
-107 c47 -67 302 -333 376 -390 l61 -48 10 25 c6 15 17 26 29 26 25 0 170 127
318 279 68 69 123 120 123 113 0 -17 -172 -203 -261 -282 -206 -183 -209 -184
-281 -128 -73 57 -324 310 -377 381 -37 48 -45 66 -47 110 l-3 52 9 -45 c5
-25 25 -66 43 -93z m1817 -42 c157 -130 294 -256 475 -438 100 -100 328 -325
508 -501 180 -175 325 -321 323 -324 -7 -6 -85 54 -156 121 -30 29 -86 79
-124 112 -39 33 -147 134 -240 224 -468 452 -619 595 -701 668 -108 96 -215
207 -215 222 0 17 35 -5 130 -84z m-113 -4 c75 -60 233 -209 836 -791 49 -47
93 -93 99 -103 8 -17 7 -18 -13 -12 -33 11 -136 101 -359 316 -107 103 -256
243 -330 312 -124 114 -300 297 -300 311 0 14 21 4 67 -33z m-1979 -56 c-4
-33 -3 -34 15 -17 17 15 19 15 28 0 5 -9 38 -53 75 -99 36 -45 68 -95 71 -110
3 -16 9 -27 13 -24 4 3 25 -14 45 -38 20 -23 50 -56 66 -74 33 -35 33 -52 -4
-133 -42 -92 -121 -200 -102 -139 5 13 9 35 11 47 2 23 2 23 -17 6 -10 -9 -19
-25 -19 -36 0 -10 -4 -18 -9 -18 -16 0 -18 34 -4 62 37 77 -48 -1 -194 -177
-56 -68 -128 -135 -144 -135 -5 0 -8 4 -4 9 10 16 -15 23 -33 9 -23 -18 31 53
108 143 76 89 165 217 157 225 -3 3 -68 -56 -144 -132 -210 -210 -293 -289
-293 -278 0 5 30 39 68 75 93 91 129 131 198 224 99 131 95 130 -66 -15 -123
-111 -177 -150 -196 -143 -13 5 -16 3 -11 -10 4 -11 2 -14 -9 -10 -9 3 -21 -3
-30 -16 -16 -22 -34 -28 -34 -11 0 5 10 18 22 30 32 30 13 37 -24 8 -37 -28
-121 -78 -131 -78 -24 0 5 39 86 116 99 95 197 203 197 219 0 5 -33 -23 -72
-62 -41 -40 -93 -79 -118 -90 -25 -11 -75 -45 -111 -76 -57 -48 -300 -200
-352 -220 -18 -7 -24 8 -7 18 6 4 8 10 5 15 -3 5 61 64 142 131 268 222 492
454 773 803 47 58 55 58 48 1z m272 -152 c113 -120 286 -277 345 -314 44 -28
91 -25 99 5 4 18 15 25 47 30 79 13 232 102 333 195 l40 36 -32 -37 c-17 -21
-63 -65 -102 -99 -39 -33 -120 -108 -180 -165 -60 -57 -112 -104 -115 -104 -6
0 -228 213 -373 360 -115 116 -211 226 -235 271 -17 30 -14 29 20 -11 21 -25
90 -100 153 -167z m2592 178 c29 -16 55 -37 57 -47 2 -12 -2 -15 -12 -11 -28
10 -25 -17 5 -51 27 -32 28 -35 13 -55 -9 -12 -18 -29 -21 -38 -3 -9 -17 -22
-30 -30 -18 -9 -21 -15 -12 -20 18 -11 -1 -28 -38 -35 -16 -2 -38 -16 -49 -29
-42 -50 -118 -26 -176 57 -20 27 -20 33 -9 69 13 38 12 41 -15 69 -26 27 -24
45 2 19 6 -6 21 -9 34 -7 23 3 21 7 -28 56 -28 28 -49 52 -46 52 3 0 29 -13
57 -29 33 -19 56 -27 65 -22 7 5 11 13 7 19 -3 6 -3 17 0 26 5 12 20 16 61 16
33 0 52 4 48 10 -12 20 35 9 87 -19z m-4072 -1 c-24 -19 -24 -20 -4 -20 32 0
33 -8 10 -53 -24 -47 -48 -78 -90 -116 -16 -14 -34 -31 -40 -36 -6 -6 -28 -19
-48 -30 -20 -10 -54 -41 -75 -69 -31 -41 -72 -77 -198 -173 -74 -57 -144 -115
-159 -132 -23 -25 -38 -27 -29 -4 4 10 2 14 -4 10 -11 -7 -43 25 -88 88 -15
22 -41 53 -58 68 -35 33 -28 46 42 82 25 13 64 35 86 51 90 61 635 354 660
354 18 0 18 -2 -5 -20z m3209 -213 c117 -115 155 -166 137 -184 -3 -3 -29 -12
-57 -19 -44 -12 -53 -11 -66 1 -8 8 -12 19 -9 23 3 5 -13 40 -35 78 -36 61
-61 108 -107 207 -7 16 -8 27 -3 25 5 -1 68 -61 140 -131z m-467 96 c32 -35
158 -221 158 -235 0 -5 10 -24 23 -41 35 -50 105 -172 101 -176 -2 -2 -5 -2
-7 0 -1 2 -36 48 -77 103 -110 145 -178 244 -211 308 -16 32 -29 60 -29 63 0
12 18 3 42 -22z m-2036 -190 c28 -38 7 -116 -37 -138 -85 -45 -163 9 -124 86
31 60 131 92 161 52z m-321 -100 c-61 -57 -148 -136 -195 -176 -47 -39 -124
-107 -173 -151 -48 -43 -91 -76 -95 -71 -4 4 -1 10 6 12 13 5 21 13 63 59 31
35 105 103 219 204 47 41 122 109 166 151 45 41 90 76 100 76 12 0 -21 -37
-91 -104z m1224 -65 c11 -32 0 -60 -91 -228 -54 -99 -123 -188 -136 -175 -9 9
21 94 39 111 11 9 19 20 19 24 0 17 141 300 149 300 5 0 14 -14 20 -32z
m-3699 -39 c45 -22 84 -47 87 -55 7 -20 -14 -68 -43 -95 l-24 -22 -45 24 c-76
40 -140 93 -137 114 5 28 44 75 63 75 9 0 54 -18 99 -41z m950 -105 c14 -10
31 -24 38 -32 18 -23 15 -77 -7 -103 -27 -34 -99 -34 -134 -1 -47 44 -37 135
16 145 44 9 63 7 87 -9z m3446 -333 c43 -20 84 -67 84 -97 0 -10 -26 -42 -57
-71 l-58 -54 45 -39 c25 -22 51 -40 58 -40 11 0 13 7 16 53 1 10 8 22 16 27
20 13 77 13 85 0 7 -11 -37 -101 -59 -119 -22 -19 -20 -35 11 -82 22 -34 24
-42 12 -50 -23 -14 -38 -10 -55 15 l-16 25 -51 -32 c-65 -39 -138 -42 -205 -8
-55 28 -102 92 -102 139 0 43 36 94 79 112 38 15 39 29 5 79 -24 37 -24 41
-11 68 18 34 42 56 82 77 39 21 71 20 121 -3z m1854 -31 c0 -66 -5 -70 -76
-70 l-64 0 0 -195 0 -196 -57 3 -58 3 -1 195 -1 195 -69 0 -69 0 -3 52 -3 53
193 2 c106 2 196 2 201 0 4 -2 7 -21 7 -42z m-3545 16 c199 -93 205 -362 10
-452 -166 -78 -354 43 -355 229 0 66 14 100 67 158 78 86 182 111 278 65z
m984 3 c56 -17 134 -88 156 -141 25 -60 23 -143 -3 -195 -46 -88 -139 -131
-306 -140 l-111 -6 3 217 c3 143 0 221 -7 229 -5 7 -7 24 -4 36 6 24 7 24 118
18 61 -3 131 -11 154 -18z m1425 12 c62 -15 126 -88 126 -145 0 -13 -11 -38
-25 -54 -14 -17 -25 -34 -25 -38 0 -5 16 -22 35 -37 29 -23 35 -34 35 -66 0
-50 -34 -101 -85 -126 -33 -16 -66 -20 -182 -23 l-143 -4 0 235 c0 129 -3 242
-6 251 -5 14 8 16 112 16 66 0 136 -5 158 -9z m636 -33 c0 -24 -4 -48 -8 -55
-5 -8 -46 -13 -122 -15 l-115 -3 -3 -42 -3 -43 107 0 107 0 -7 -47 c-3 -25 -9
-49 -12 -52 -3 -3 -46 -8 -95 -9 l-89 -4 0 -34 0 -34 120 0 120 0 0 -61 0 -60
-178 3 -178 3 0 247 0 248 178 0 178 0 0 -42z m-3820 -63 l0 -95 101 0 101 0
-3 93 -3 92 57 3 57 3 0 -184 c0 -101 -3 -212 -6 -246 l-7 -61 -55 0 -55 0 7
95 c6 78 5 96 -7 101 -8 3 -52 2 -98 -3 l-84 -8 3 -67 c6 -98 0 -108 -57 -108
l-48 0 -5 130 c-3 71 -3 179 0 240 l5 110 48 0 49 0 0 -95z m1162 -95 l-4
-190 106 0 106 0 0 -55 0 -54 -160 -3 -160 -3 0 156 c0 86 3 197 6 247 l7 92
51 0 52 0 -4 -190z m-1612 -456 c63 -19 113 -49 159 -97 l34 -36 -54 -50 c-53
-48 -54 -49 -74 -31 -32 30 -107 60 -151 60 -50 0 -137 -42 -164 -80 -68 -95
-36 -250 64 -311 63 -38 200 -15 239 41 l16 22 60 -53 c34 -29 61 -56 61 -59
0 -12 -66 -68 -110 -93 -184 -105 -397 -32 -497 171 -34 69 -38 84 -38 156 0
70 4 90 31 147 18 37 48 84 68 106 34 38 129 97 185 113 43 13 114 11 171 -6z
m612 -81 c22 -48 53 -122 70 -163 16 -41 49 -120 73 -175 24 -55 64 -149 89
-208 l45 -108 -91 3 -90 3 -25 67 -25 66 -141 -5 c-78 -3 -145 -8 -148 -12 -3
-3 -16 -31 -29 -61 -12 -30 -26 -57 -30 -60 -4 -3 -40 -4 -79 -2 -54 3 -71 7
-71 18 0 23 108 312 177 474 24 58 58 137 75 177 l30 72 62 3 c33 2 63 2 65 1
2 -1 21 -42 43 -90z m2204 84 c50 -13 191 -99 200 -121 3 -7 -20 -37 -51 -68
-54 -54 -55 -54 -72 -35 -47 53 -160 74 -227 42 -49 -24 -104 -87 -112 -130
-26 -138 60 -255 187 -255 52 0 120 29 142 60 15 21 15 21 80 -31 40 -31 63
-57 60 -65 -14 -37 -165 -123 -241 -137 -78 -15 -219 39 -293 113 -71 71 -102
138 -107 235 -10 195 111 359 291 395 62 12 87 11 143 -3z m414 -261 c0 -151
3 -281 6 -290 5 -14 24 -15 150 -9 l144 6 0 -53 c0 -32 4 -50 9 -44 8 8 94
208 227 529 l54 130 71 0 72 0 57 -135 c31 -74 88 -210 125 -302 38 -93 73
-168 78 -168 18 0 76 52 87 80 15 35 30 38 56 9 81 -90 274 -97 274 -10 0 32
-21 44 -155 86 -110 34 -154 62 -193 120 -32 47 -34 55 -30 117 3 57 8 73 34
105 17 21 53 52 79 68 45 28 55 30 144 30 90 0 101 -2 171 -36 122 -60 121
-57 66 -114 -25 -27 -46 -55 -46 -62 0 -19 -14 -16 -35 7 -36 40 -182 65 -217
38 -9 -7 -19 -23 -22 -34 -9 -31 28 -57 127 -90 112 -37 168 -66 205 -108 86
-98 53 -244 -70 -311 -63 -34 -179 -46 -256 -25 -52 15 -151 61 -197 94 l-30
21 28 -47 c15 -26 27 -51 27 -57 0 -7 -32 -11 -88 -11 l-88 0 -13 38 c-7 20
-17 49 -23 64 l-10 26 -155 0 c-105 0 -156 -4 -158 -12 -3 -6 -13 -36 -25 -66
l-20 -56 -307 4 c-192 3 -310 8 -314 14 -4 6 -7 169 -8 363 -2 332 -1 354 16
357 10 2 48 4 86 5 l67 3 0 -274z m2247 -96 l-2 -370 -82 0 -83 0 0 140 0 141
-137 -3 -138 -3 -3 -140 -3 -140 -82 2 -82 1 -3 366 -2 366 85 0 85 0 0 -145
0 -145 134 0 134 0 7 150 7 150 84 0 83 0 -2 -370z m-4149 331 c175 -78 205
-315 54 -418 -18 -12 -38 -23 -45 -26 -15 -5 55 -123 117 -198 25 -31 46 -59
46 -63 0 -3 -44 -6 -97 -6 l-98 0 -32 68 c-18 37 -44 88 -59 115 l-26 47 -64
0 -64 0 0 -115 0 -115 -80 0 -80 0 0 363 c0 200 3 367 8 371 4 5 88 6 187 4
162 -4 185 -6 233 -27z m642 -8 c135 -67 200 -161 208 -300 7 -119 -22 -209
-87 -272 -57 -55 -155 -107 -230 -121 -29 -5 -114 -10 -187 -10 l-134 0 0 363
c0 200 3 367 7 371 4 4 87 6 183 4 175 -3 176 -3 240 -35z"/>
<path d="M4997 7968 c-8 -18 -17 -46 -21 -63 -12 -47 -48 -125 -57 -125 -5 0
-9 -9 -9 -19 0 -11 -8 -27 -17 -36 -16 -16 -17 -16 -29 -1 -8 11 -14 13 -19 6
-3 -5 -9 -8 -13 -6 -4 2 -8 -17 -8 -42 -1 -26 -12 -96 -24 -157 -21 -100 -22
-128 -17 -310 7 -227 25 -330 26 -155 2 177 40 467 71 544 17 40 11 -50 -10
-155 -11 -57 -18 -105 -15 -107 8 -8 42 158 60 293 4 28 12 59 20 70 7 12 21
56 30 99 10 43 26 105 35 137 20 65 18 78 -3 27z"/>
<path d="M3661 7840 c-85 -20 -127 -122 -78 -188 21 -28 24 -38 16 -67 -6 -21
-6 -43 1 -61 12 -31 78 -104 93 -104 6 0 41 9 79 21 56 16 73 26 88 52 27 44
26 116 -1 151 -15 19 -21 43 -22 80 -2 58 -19 86 -69 112 -29 15 -55 16 -107
4z m110 -80 c38 -55 35 -64 -35 -84 -83 -23 -99 -20 -110 27 -8 32 -7 40 14
62 33 35 104 32 131 -5z m39 -149 c18 -35 12 -79 -14 -96 -67 -44 -136 -24
-136 40 0 36 10 47 55 63 48 17 83 14 95 -7z"/>
<path d="M2961 7392 c-74 -40 -98 -150 -48 -215 23 -30 34 -37 63 -37 38 0
106 30 142 63 25 23 30 88 10 132 -25 56 -113 86 -167 57z m102 -74 c28 -33
22 -72 -17 -102 -42 -32 -61 -33 -80 -3 -40 62 -7 146 52 132 15 -3 35 -15 45
-27z"/>
<path d="M3765 7353 c-16 -24 -25 -51 -25 -75 0 -21 -4 -38 -9 -38 -5 0 -19
-16 -31 -36 -27 -43 -22 -86 17 -126 40 -42 83 -38 123 10 l32 37 -6 -62 c-3
-35 -3 -63 1 -63 15 0 93 33 93 39 0 4 -13 20 -30 36 -16 16 -30 32 -30 37 0
4 22 8 49 8 59 0 81 18 81 65 0 42 -39 91 -79 100 -16 3 -55 28 -86 56 -31 27
-60 49 -65 49 -5 0 -21 -17 -35 -37z"/>
<path d="M3183 7219 c-8 -8 -8 -18 -1 -35 21 -45 -35 -124 -87 -124 -12 0 -34
9 -48 20 -16 13 -28 17 -32 10 -9 -15 3 -61 24 -89 l18 -24 59 24 c62 26 114
70 140 120 15 30 14 32 -10 70 -27 40 -44 47 -63 28z"/>
<path d="M3212 6998 c-17 -17 -15 -75 5 -109 15 -26 15 -30 1 -46 -42 -49 -28
-129 29 -164 35 -22 36 -22 70 -4 40 22 63 60 63 105 0 30 1 31 35 24 51 -9
83 2 105 39 30 48 26 83 -14 123 -37 37 -73 43 -116 19 -35 -20 -80 -18 -115
5 -35 23 -46 25 -63 8z"/>
<path d="M6620 7890 c-28 -8 -26 -9 50 -32 42 -12 45 -15 48 -51 4 -43 -19
-87 -45 -87 -8 0 -33 16 -54 35 -50 45 -102 48 -148 9 -55 -46 -56 -56 -6
-121 24 -32 60 -76 79 -97 32 -37 36 -39 60 -28 35 16 33 35 -9 69 -89 71
-111 107 -85 138 20 24 51 18 88 -17 27 -27 41 -33 75 -32 90 2 136 72 103
159 -10 25 -26 50 -36 55 -21 11 -83 12 -120 0z"/>
<path d="M6292 7620 c-55 -34 -83 -100 -108 -256 l-6 -41 113 4 c63 2 124 6
136 9 28 5 51 49 59 108 7 49 7 49 -71 73 -26 7 -30 12 -27 41 4 38 -20 82
-46 82 -9 0 -32 -9 -50 -20z"/>
<path d="M4874 6754 c-113 -104 -160 -155 -200 -216 -24 -38 -48 -68 -54 -68
-6 0 -8 -4 -5 -10 5 -8 -36 -13 -71 -9 -12 1 -54 -53 -61 -79 -11 -40 -8 -111
6 -167 7 -27 16 -68 21 -90 13 -63 27 -102 45 -127 17 -23 17 -23 11 12 -14
90 -18 209 -7 258 14 65 70 187 126 272 24 36 87 107 139 159 53 52 95 96 93
98 -2 2 -21 -13 -43 -33z"/>
<path d="M4840 5180 c-61 -85 -79 -193 -50 -295 21 -73 97 -148 173 -170 73
-21 122 -13 184 28 63 43 74 62 46 82 -48 34 -152 152 -252 288 -40 53 -74 97
-76 97 -2 0 -13 -13 -25 -30z"/>
<path d="M1893 5102 c-13 -9 -36 -52 -28 -52 9 0 31 23 38 40 5 13 5 13 6 0 0
-8 -6 -24 -14 -34 -8 -11 -12 -29 -9 -39 5 -15 3 -17 -7 -11 -12 7 -12 5 0 -9
7 -9 17 -15 21 -12 14 9 41 -31 34 -50 -5 -13 -4 -16 4 -11 8 5 10 2 6 -9 -6
-15 -8 -15 -23 0 -12 12 -13 17 -4 23 10 7 10 12 0 26 -12 16 -14 16 -25 -9
-7 -14 -9 -25 -5 -23 9 4 82 -69 76 -75 -2 -3 3 -7 11 -10 13 -5 13 -2 4 18
-6 14 -15 25 -20 25 -4 0 -8 5 -8 12 0 6 8 4 19 -6 19 -17 20 -17 30 3 15 26
14 38 -1 23 -16 -16 -25 -15 -32 4 -5 14 -4 15 9 4 16 -14 20 -3 6 19 -5 8
-14 10 -21 6 -8 -5 -11 -4 -7 2 3 5 -7 20 -23 32 -17 12 -30 26 -30 30 0 5 14
-4 31 -20 29 -27 42 -33 61 -30 4 0 5 -6 1 -15 -5 -14 -3 -15 18 -3 13 7 26
11 27 10 2 -2 6 -1 8 2 3 2 -2 7 -11 10 -8 4 -15 1 -15 -5 0 -6 -2 -9 -5 -6
-3 3 2 22 10 42 9 21 11 35 6 31 -6 -3 -11 -2 -11 4 0 5 -11 8 -25 5 -20 -3
-25 0 -25 15 0 25 -20 38 -21 14 0 -15 -2 -15 -11 4 -12 25 -30 34 -45 25z"/>
<path d="M5357 2662 c-36 -40 -7 -102 55 -117 25 -6 98 10 98 21 0 3 -21 30
-47 60 -51 57 -78 67 -106 36z"/>
<path d="M3670 2832 c-55 -24 -90 -76 -90 -132 0 -151 195 -194 266 -58 19 36
18 68 -5 121 -13 31 -29 48 -54 60 -36 17 -89 21 -117 9z"/>
<path d="M4640 2837 c-3 -3 -4 -66 -2 -141 l3 -136 51 0 c27 0 66 7 85 16 42
20 83 78 83 117 0 44 -28 94 -65 117 -30 19 -144 38 -155 27z"/>
<path d="M6078 2844 c-5 -4 -8 -27 -8 -51 l0 -43 69 0 c50 0 74 4 85 16 20 20
20 48 1 64 -17 14 -136 26 -147 14z"/>
<path d="M6070 2606 l0 -46 79 0 c59 0 84 4 95 16 20 19 20 25 2 49 -12 16
-29 20 -95 23 l-81 4 0 -46z"/>
<path d="M3063 1977 c-22 -50 -43 -104 -47 -119 l-6 -28 95 0 95 0 -22 53
c-11 28 -32 81 -45 117 -13 36 -25 66 -27 67 -1 2 -21 -39 -43 -90z"/>
<path d="M6480 2070 c0 -6 -18 -48 -39 -94 -21 -46 -42 -96 -45 -112 l-7 -29
91 3 c49 2 90 5 90 7 0 3 -13 38 -29 78 -16 41 -33 90 -36 110 -7 35 -25 62
-25 37z"/>
<path d="M3656 2115 c-3 -11 -6 -57 -6 -102 l0 -83 53 1 c98 1 159 14 179 39
27 33 24 92 -7 129 -25 29 -29 30 -120 33 -87 3 -94 2 -99 -17z"/>
<path d="M4300 2048 c0 -51 -3 -144 -7 -205 l-6 -113 77 0 c116 0 176 31 219
115 26 51 27 136 2 188 -32 68 -116 106 -232 107 l-53 0 0 -92z"/>
</g>
</svg>
